<?xml version="1.0" encoding="UTF-8"?>
<svg width="522" height="522" xmlns="http://www.w3.org/2000/svg">
 <path d="m522 522h-522v-522h522zm-316.84-124.28c7.12 17.12 22.92 29.38 45.57 35.36 4 1.06 10.08 1.91 13.52 1.9s9.5-0.65 13.48-1.41c15.51-2.97 33.22-20.35 40.37-39.63 2.39-6.44 2.39-6.44 2.9-91.44 0.49-82.47 0.56-85.12 2.5-89 2.77-5.54 10.24-9.71 17.29-9.65 6.77 0.05 7.46-1.42 2.63-5.65-12.68-11.09-32.69-9.65-45.79 3.3-6.49 6.42-6.99 8.5-8.13 52.64l-49.63-0.06c-41.69-0.05-49.83 0.17-50.82 1.36-1 1.21 6.27 21.81 8.68 24.56 0.24 0.28 20.54 0.73 89.77 1.5v37l-35.25 0.5c-35.25 0.5-35.25 0.5-38.97 3.47-18.41 14.69-3.45 57.53 20.09 57.53 13.72 0 19.57-11.01 14.75-27.74-0.99-3.44-1.57-6.47-1.29-6.75 1.76-1.77 40.14-0.43 41.13 1.42 4.08 7.62-0.66 40.05-7.25 49.63-16.56 24.04-52.61 21.97-72.09-4.15-7.44-9.98-8.9-7.75-3.46 5.31m-143.01-22.94c3.92 10.3 15.33 19.67 27.6 22.68 4.7 1.16 10.78 1.48 24.53 1.29 18.2-0.25 18.32-0.26 25.52-3.48 13.62-6.08 21.73-17.64 23.12-32.93 2.04-22.56-0.28-95.32-3.27-102.63-7.12-17.4-19.56-23.71-46.75-23.71-22.23 0-21.28 0.78-19.9-16.31 6.87-84.91 50.42-140 122.5-154.97 23.28-4.83 69.1-4.8 92.73 0.07 25.02 5.16 51.94 17.79 68.77 32.28 26.25 22.59 48.14 70.62 53.99 118.43 2.51 20.55 4.16 18.88-19.33 19.53-28.85 0.79-40.99 7-48.35 24.7-4.11 9.89-4.47 107.05-0.43 116.11 7.6 17.05 18.37 22.06 48.12 22.4 31.46 0.36 40.75-3.3 48.77-19.24 3.28-6.5 3.28-6.5 3.28-82 0-87.46-0.53-96.74-6.98-120.5-28.32-104.47-110.14-157.91-221.26-144.54-110.09 13.25-168.16 80.93-174.67 203.54-1.74 32.74-0.29 133.25 2.01 139.28m-34.58-60.28c0.73 30.22-0.25 27.03 10.92 35.39 5.23 3.91 10.35 7.11 11.38 7.11 1.78 0 1.91-1.75 2.61-35.41 1.06-50.89 1.57-49.39-13.92-40.51-11.79 6.76-11.65 6.33-10.99 33.42m443.43 0.27c0 20.21 0.23 37.53 0.5 38.49 0.32 1.13 1.5 1.74 3.34 1.74 1.75 0 6.32-2.24 21.16-11.79v-27.19c0-30.89 1.16-27.84-13.9-36.52-11.69-6.73-11.1-8.61-11.1 35.27m-265.49-99.37c4.33 13.11 8.88 18.94 18.12 23.2 6.51 3 8.34 3.4 15.7 3.4 6.52 0 9.55-0.52 14.01-2.39 11.36-4.78 18.59-14.02 22.26-28.45 2.29-8.99 0.79-9.55-5.18-1.94-8.86 11.31-17.37 16.21-28.88 16.63-15.57 0.56-21.72-2.83-35.35-19.52-3.74-4.57-4-1.01-0.68 9.07m34.01-20.83c-13.89 0.16-18.68 13.08-7.42 20.02 2.99 1.85 4.86 2.3 8.02 1.94 2.3-0.26 5.62-1.62 7.54-3.08 9.3-7.09 4.15-19.02-8.14-18.88" fill="rgba(0,0,0,0)"/>
 <path d="m62.15 374.78c-2.3-6.03-3.75-106.54-2.01-139.28 6.51-122.61 64.58-190.29 174.67-203.54 111.12-13.37 192.94 40.07 221.26 144.54 6.45 23.76 6.98 33.04 6.98 120.5 0 75.5 0 75.5-3.28 82-8.02 15.94-17.31 19.6-48.77 19.24-29.75-0.34-40.52-5.35-48.12-22.4-4.04-9.06-3.68-106.22 0.43-116.11 7.36-17.7 19.5-23.91 48.35-24.7 23.49-0.65 21.84 1.02 19.33-19.53-5.85-47.81-27.74-95.84-53.99-118.43-16.83-14.49-43.75-27.12-68.77-32.28-23.63-4.87-69.45-4.9-92.73-0.07-72.08 14.97-115.63 70.06-122.5 154.97-1.38 17.09-2.33 16.31 19.9 16.31 27.19 0 39.63 6.31 46.75 23.71 2.99 7.31 5.31 80.07 3.27 102.63-1.39 15.29-9.5 26.85-23.12 32.93-7.2 3.22-7.32 3.23-25.52 3.48-13.75 0.19-19.83-0.13-24.53-1.29-12.27-3.01-23.68-12.38-27.6-22.68" fill="rgba(252,252,252,0.988235)"/>
 <path d="m205.16 397.72c-5.44-13.06-3.98-15.29 3.46-5.31 19.48 26.12 55.53 28.19 72.09 4.15 6.59-9.58 11.33-42.01 7.25-49.63-0.99-1.85-39.37-3.19-41.13-1.42-0.28 0.28 0.3 3.31 1.29 6.75 4.82 16.73-1.03 27.74-14.75 27.74-23.54 0-38.5-42.84-20.09-57.53 3.72-2.97 3.72-2.97 38.97-3.47l35.25-0.5v-37c-69.23-0.77-89.53-1.22-89.77-1.5-2.41-2.75-9.68-23.35-8.68-24.56 0.99-1.19 9.13-1.41 50.82-1.36l49.63 0.06c1.14-44.14 1.64-46.22 8.13-52.64 13.1-12.95 33.11-14.39 45.79-3.3 4.83 4.23 4.14 5.7-2.63 5.65-7.05-0.06-14.52 4.11-17.29 9.65-1.94 3.88-2.01 6.53-2.5 89-0.51 85-0.51 85-2.9 91.44-7.15 19.28-24.86 36.66-40.37 39.63-3.98 0.76-10.04 1.4-13.48 1.41s-9.52-0.84-13.52-1.9c-22.65-5.98-38.45-18.24-45.57-35.36" fill="rgba(252,252,252,0.988235)"/>
 <path d="m471 314.77c0-43.88-0.59-42 11.1-35.27 15.06 8.68 13.9 5.63 13.9 36.52v27.19c-14.84 9.55-19.41 11.79-21.16 11.79-1.84 0-3.02-0.61-3.34-1.74-0.27-0.96-0.5-18.28-0.5-38.49" fill="rgba(252,252,252,0.988235)"/>
 <path d="m27.57 314.5c-0.66-27.09-0.8-26.66 10.99-33.42 15.49-8.88 14.98-10.38 13.92 40.51-0.7 33.66-0.83 35.41-2.61 35.41-1.03 0-6.15-3.2-11.38-7.11-11.17-8.36-10.19-5.17-10.92-35.39" fill="rgba(252,252,252,0.988235)"/>
 <path d="m205.51 215.4c-3.32-10.08-3.06-13.64 0.68-9.07 13.63 16.69 19.78 20.08 35.35 19.52 11.51-0.42 20.02-5.32 28.88-16.63 5.97-7.61 7.47-7.05 5.18 1.94-3.67 14.43-10.9 23.67-22.26 28.45-4.46 1.87-7.49 2.39-14.01 2.39-7.36 0-9.19-0.4-15.7-3.4-9.24-4.26-13.79-10.09-18.12-23.2" fill="rgba(252,252,252,0.988235)"/>
 <path d="m239.52 194.57c12.29-0.14 17.44 11.79 8.14 18.88-1.92 1.46-5.24 2.82-7.54 3.08-3.16 0.36-5.03-0.09-8.02-1.94-11.26-6.94-6.47-19.86 7.42-20.02" fill="rgba(252,252,252,0.988235)"/>
</svg>
