<?xml version="1.0" encoding="UTF-8"?>
<svg width="522" height="522" xmlns="http://www.w3.org/2000/svg">
 <path d="m522 522h-522v-522h522zm-315.5-124.29c7.19 15.56 18.38 25.22 37.75 32.58 9.67 3.68 9.86 3.71 23 3.45 13.25-0.26 13.25-0.26 19.41-3.91 14.04-8.34 25.5-22.27 31.52-38.33 2.25-6 2.25-6 2.35-90 0.11-95.11-0.41-88.95 8.11-94.7 3.62-2.45 6.11-3.3 10.55-3.62 6.96-0.5 7-0.66 1.73-5.41-14.2-12.81-43.53-3.88-48.38 14.73-1.11 4.26-1.54 10.9-1.54 23.65 0 9.75-0.4 17.98-0.9 18.29-0.49 0.3-22.88 0.67-49.75 0.83-26.87 0.15-49.4 0.62-50.07 1.04-0.93 0.59-0.77 1.77 0.65 4.98 1.03 2.32 2.92 6.87 4.2 10.12 3.68 9.33-0.51 8.59 48.83 8.59 39.04 0 43.89 0.17 44.43 1.58 1.26 3.29 0.67 36.12-0.67 37.24-0.83 0.68-13.23 1.17-35.25 1.37-33.15 0.3-34.06 0.36-37.78 2.56-8.74 5.17-11.13 23.06-4.93 36.87 13.05 29.04 45.83 24.64 37.79-5.07-2.91-10.76-4.28-10.1 41.45-9.34v16.08c0 21-1.93 28.97-9.3 38.4-16.71 21.38-51.1 18.9-70.91-5.11-6.69-8.1-7.17-7.44-2.29 3.13m-144.37-26.44c3.31 14.82 17.26 24.47 37.31 25.82 7.46 0.5 18.28 0.76 24.04 0.58 9.41-0.29 11.16-0.65 17.02-3.52 8.17-4 16.18-12.89 19.51-21.65 2.83-7.45 3.22-92.45 0.49-105.83-4.3-21.04-18.41-29.67-48.5-29.67-20.57 0-20 0.32-20-11.39 0-32.99 14.75-80.09 32.88-104.97 29.75-40.86 74.08-60.63 135.96-60.65 90.63-0.02 140.97 37.28 164.62 121.98 4.58 16.39 9.41 47.31 7.92 50.68-1.24 2.81-4.57 3.37-22.08 3.76-23.52 0.53-29.54 2.45-39.14 12.47-10.75 11.22-10.51 9.81-10.95 66.67-0.43 57.3-0.34 58.07 8.05 67.85 10.07 11.73 15.88 13.59 43.24 13.85 31.44 0.3 39.01-2.86 47.11-19.69 3.74-7.77 3.74-7.77 2.68-87.91-1.37-103.12-2.74-112.72-21.89-153.21-36.51-77.15-110-114.35-204.29-103.39-109.8 12.75-167.51 78.88-174.5 199.95-1.56 27.07-1.18 130.71 0.52 138.27m-31.94-29.55c0.61 0.74 4.86 4.25 9.46 7.81 4.59 3.56 9.14 6.36 10.1 6.22 1.63-0.23 1.77-3 2.01-39.5 0.25-37.51 0.18-39.25-1.57-39.25-2.32 0-18.18 9.02-20.19 11.48-1.88 2.3-1.71 50.96 0.19 53.24m449.02-62.61c-7.43-3.96-7.21-5.08-7.21 37.51 0 37.38 0 37.38 2.82 37.38 1.58 0 6.09-1.99 10.25-4.51 4.09-2.48 7.99-4.97 8.68-5.54 0.94-0.78 1.25-7.61 1.25-27.87 0-29.47 0.51-28.27-15.79-36.97m-272.06-62.21c4.9 12.25 9.47 17.68 18.12 21.54 4.57 2.04 7.32 2.56 13.57 2.56 4.31 0 9.93-0.63 12.47-1.39 10.42-3.14 19.19-13.34 22.76-26.49 2.49-9.14 2.15-9.55-2.61-3.06-4.47 6.09-15.21 14.09-22.07 16.44-13.49 4.63-34.58-3.83-41.96-16.83-4.36-7.67-4.52-3.38-0.28 7.23m29.04-21.04c-10.36 2.23-11.99 13.05-2.78 18.58 1.71 1.03 4.02 1.4 6.82 1.08 2.33-0.27 5.43-1.37 6.9-2.45 10.12-7.49 2.17-20.01-10.94-17.21" fill="rgba(0,0,0,0)"/>
 <path d="m62.13 371.27c-1.7-7.56-2.08-111.2-0.52-138.27 6.99-121.07 64.7-187.2 174.5-199.95 94.29-10.96 167.78 26.24 204.29 103.39 19.15 40.49 20.52 50.09 21.89 153.21 1.06 80.14 1.06 80.14-2.68 87.91-8.1 16.83-15.67 19.99-47.11 19.69-27.36-0.26-33.17-2.12-43.24-13.85-8.39-9.78-8.48-10.55-8.05-67.85 0.44-56.86 0.2-55.45 10.95-66.67 9.6-10.02 15.62-11.94 39.14-12.47 17.51-0.39 20.84-0.95 22.08-3.76 1.49-3.37-3.34-34.29-7.92-50.68-23.65-84.7-73.99-122-164.62-121.98-61.88 0.02-106.21 19.79-135.96 60.65-18.13 24.88-32.88 71.98-32.88 104.97 0 11.71-0.57 11.39 20 11.39 30.09 0 44.2 8.63 48.5 29.67 2.73 13.38 2.34 98.38-0.49 105.83-3.33 8.76-11.34 17.65-19.51 21.65-5.86 2.87-7.61 3.23-17.02 3.52-5.76 0.18-16.58-0.08-24.04-0.58-20.05-1.35-34-11-37.31-25.82" fill="rgba(0,0,0,0.988235)"/>
 <path d="m206.5 397.71c-4.88-10.57-4.4-11.23 2.29-3.13 19.81 24.01 54.2 26.49 70.91 5.11 7.37-9.43 9.3-17.4 9.3-38.4v-16.08c-45.73-0.76-44.36-1.42-41.45 9.34 8.04 29.71-24.74 34.11-37.79 5.07-6.2-13.81-3.81-31.7 4.93-36.87 3.72-2.2 4.63-2.26 37.78-2.56 22.02-0.2 34.42-0.69 35.25-1.37 1.34-1.12 1.93-33.95 0.67-37.24-0.54-1.41-5.39-1.58-44.43-1.58-49.34 0-45.15 0.74-48.83-8.59-1.28-3.25-3.17-7.8-4.2-10.12-1.42-3.21-1.58-4.39-0.65-4.98 0.67-0.42 23.2-0.89 50.07-1.04 26.87-0.16 49.26-0.53 49.75-0.83 0.5-0.31 0.9-8.54 0.9-18.29 0-12.75 0.43-19.39 1.54-23.65 4.85-18.61 34.18-27.54 48.38-14.73 5.27 4.75 5.23 4.91-1.73 5.41-4.44 0.32-6.93 1.17-10.55 3.62-8.52 5.75-8-0.41-8.11 94.7-0.1 84-0.1 84-2.35 90-6.02 16.06-17.48 29.99-31.52 38.33-6.16 3.65-6.16 3.65-19.41 3.91-13.14 0.26-13.33 0.23-23-3.45-19.37-7.36-30.56-17.02-37.75-32.58" fill="rgba(0,0,0,0.988235)"/>
 <path d="m30.19 341.72c-1.9-2.28-2.07-50.94-0.19-53.24 2.01-2.46 17.87-11.48 20.19-11.48 1.75 0 1.82 1.74 1.57 39.25-0.24 36.5-0.38 39.27-2.01 39.5-0.96 0.14-5.51-2.66-10.1-6.22-4.6-3.56-8.85-7.07-9.46-7.81" fill="rgba(0,0,0,0.988235)"/>
 <path d="m479.21 279.11c16.3 8.7 15.79 7.5 15.79 36.97 0 20.26-0.31 27.09-1.25 27.87-0.69 0.57-4.59 3.06-8.68 5.54-4.16 2.52-8.67 4.51-10.25 4.51-2.82 0-2.82 0-2.82-37.38 0-42.59-0.22-41.47 7.21-37.51" fill="rgba(0,0,0,0.988235)"/>
 <path d="m207.15 216.9c-4.24-10.61-4.08-14.9 0.28-7.23 7.38 13 28.47 21.46 41.96 16.83 6.86-2.35 17.6-10.35 22.07-16.44 4.76-6.49 5.1-6.08 2.61 3.06-3.57 13.15-12.34 23.35-22.76 26.49-2.54 0.76-8.16 1.39-12.47 1.39-6.25 0-9-0.52-13.57-2.56-8.65-3.86-13.22-9.29-18.12-21.54" fill="rgba(0,0,0,0.988235)"/>
 <path d="m236.19 195.86c13.11-2.8 21.06 9.72 10.94 17.21-1.47 1.08-4.57 2.18-6.9 2.45-2.8 0.32-5.11-0.05-6.82-1.08-9.21-5.53-7.58-16.35 2.78-18.58" fill="rgba(0,0,0,0.988235)"/>
</svg>
